# xmcd
#
# Track frame offsets:
# 150
# 24385
# 51265
# 71300
# 86630
# 108677
# 151335
# 172027
# 194250
# 216552
# 238734
# 255347
#
# Disc length: 3699 seconds
#
#
# Revision: 0
# Processed by: cddbd v1.5.2PL0 Copyright (c) Steve Scherf et al.
# Submitted via: FreeRIP 2.945 
#
DISCID=a60e710c
DTITLE=Anderlino José - 25 Anos
DYEAR=2008
DGENRE=Gospel
TTITLE0=É Bonita
TTITLE1=Quem é Este?
TTITLE2=O Meu Senhos Já Estava
TTITLE3=Cadê os Crentes Que Dão Glória
TTITLE4=Ele Corta o Laço
TTITLE5=Sei É Bem Assim
TTITLE6=Permissão de Deus
TTITLE7=Se Levanta Desse Chão
TTITLE8=Degrau da Exaltação
TTITLE9=Varão de Branco
TTITLE10=O Homem das Mãos Furadas
TTITLE11=Nada Me Separa Desse Amor
EXTD=
EXTT0=
EXTT1=
EXTT2=
EXTT3=
EXTT4=
EXTT5=
EXTT6=
EXTT7=
EXTT8=
EXTT9=
EXTT10=
EXTT11=
PLAYORDER=
